<mxfile host="Electron" modified="2023-11-11T20:25:20.326Z" agent="Mozilla/5.0 (X11; Linux x86_64) AppleWebKit/537.36 (KHTML, like Gecko) draw.io/22.0.3 Chrome/114.0.5735.289 Electron/25.8.4 Safari/537.36" etag="ijtxPd0hZYUcI4VlNutN" version="22.0.3" type="device">
  <diagram name="Page-1" id="5f0bae14-7c28-e335-631c-24af17079c00">
    <mxGraphModel dx="1383" dy="1189" grid="1" gridSize="10" guides="1" tooltips="1" connect="1" arrows="1" fold="1" page="0" pageScale="1" pageWidth="1100" pageHeight="850" background="none" math="0" shadow="0">
      <root>
        <mxCell id="0" />
        <mxCell id="1" parent="0" />
        <mxCell id="V81oZwgacPEiM1GLQj9a-3" value="&lt;p style=&quot;margin:0px;margin-top:6px;text-align:center;&quot;&gt;&amp;lt;&amp;lt;subsystem&amp;gt;&amp;gt;&lt;/p&gt;&lt;p style=&quot;margin:0px;margin-top:6px;text-align:center;&quot;&gt;&lt;b&gt;nic-emu-cli&lt;/b&gt;&lt;/p&gt;&lt;hr&gt;&lt;p style=&quot;margin:0px;margin-left:8px;&quot;&gt;&lt;br&gt;&lt;/p&gt;" style="align=left;overflow=fill;html=1;dropTarget=0;whiteSpace=wrap;movable=0;container=0;connectable=0;" vertex="1" parent="1">
          <mxGeometry x="80" y="-80" width="600" height="360" as="geometry" />
        </mxCell>
        <mxCell id="V81oZwgacPEiM1GLQj9a-4" value="" style="shape=component;jettyWidth=8;jettyHeight=4;" vertex="1" parent="V81oZwgacPEiM1GLQj9a-3">
          <mxGeometry x="1" width="20" height="20" relative="1" as="geometry">
            <mxPoint x="-24" y="4" as="offset" />
          </mxGeometry>
        </mxCell>
        <mxCell id="V81oZwgacPEiM1GLQj9a-45" value="libnic-emu" style="shape=folder;fontStyle=1;tabWidth=110;tabHeight=30;tabPosition=left;html=1;boundedLbl=1;labelInHeader=1;container=1;collapsible=0;recursiveResize=0;whiteSpace=wrap;" vertex="1" parent="1">
          <mxGeometry x="120" width="350" height="240" as="geometry" />
        </mxCell>
        <mxCell id="V81oZwgacPEiM1GLQj9a-25" value="&lt;b&gt;Tap interface&lt;/b&gt;" style="html=1;dropTarget=0;whiteSpace=wrap;" vertex="1" parent="1">
          <mxGeometry x="120" y="400" width="120" height="80" as="geometry" />
        </mxCell>
        <mxCell id="V81oZwgacPEiM1GLQj9a-26" value="" style="shape=module;jettyWidth=8;jettyHeight=4;" vertex="1" parent="V81oZwgacPEiM1GLQj9a-25">
          <mxGeometry x="1" width="20" height="20" relative="1" as="geometry">
            <mxPoint x="-27" y="7" as="offset" />
          </mxGeometry>
        </mxCell>
        <mxCell id="V81oZwgacPEiM1GLQj9a-27" value="&lt;b&gt;TimerFd&lt;/b&gt;" style="html=1;dropTarget=0;whiteSpace=wrap;" vertex="1" parent="1">
          <mxGeometry x="280" y="400" width="120" height="80" as="geometry" />
        </mxCell>
        <mxCell id="V81oZwgacPEiM1GLQj9a-28" value="" style="shape=module;jettyWidth=8;jettyHeight=4;" vertex="1" parent="V81oZwgacPEiM1GLQj9a-27">
          <mxGeometry x="1" width="20" height="20" relative="1" as="geometry">
            <mxPoint x="-27" y="7" as="offset" />
          </mxGeometry>
        </mxCell>
        <mxCell id="V81oZwgacPEiM1GLQj9a-29" value="&lt;b&gt;Hypervisor&lt;br&gt;&lt;/b&gt;" style="html=1;dropTarget=0;whiteSpace=wrap;" vertex="1" parent="1">
          <mxGeometry x="520" y="400" width="120" height="80" as="geometry" />
        </mxCell>
        <mxCell id="V81oZwgacPEiM1GLQj9a-30" value="" style="shape=module;jettyWidth=8;jettyHeight=4;" vertex="1" parent="V81oZwgacPEiM1GLQj9a-29">
          <mxGeometry x="1" width="20" height="20" relative="1" as="geometry">
            <mxPoint x="-27" y="7" as="offset" />
          </mxGeometry>
        </mxCell>
        <mxCell id="V81oZwgacPEiM1GLQj9a-31" value="&lt;b&gt;Intel 82540EM&lt;br&gt;Behavioral model&lt;/b&gt;" style="html=1;dropTarget=0;whiteSpace=wrap;" vertex="1" parent="1">
          <mxGeometry x="200" y="40" width="120" height="120" as="geometry" />
        </mxCell>
        <mxCell id="V81oZwgacPEiM1GLQj9a-32" value="" style="shape=module;jettyWidth=8;jettyHeight=4;" vertex="1" parent="V81oZwgacPEiM1GLQj9a-31">
          <mxGeometry x="1" width="20" height="20" relative="1" as="geometry">
            <mxPoint x="-27" y="7" as="offset" />
          </mxGeometry>
        </mxCell>
        <mxCell id="V81oZwgacPEiM1GLQj9a-43" value="&lt;b&gt;libvfio-user&lt;/b&gt;" style="html=1;dropTarget=0;whiteSpace=wrap;" vertex="1" parent="1">
          <mxGeometry x="520" y="40" width="120" height="120" as="geometry" />
        </mxCell>
        <mxCell id="V81oZwgacPEiM1GLQj9a-44" value="" style="shape=module;jettyWidth=8;jettyHeight=4;" vertex="1" parent="V81oZwgacPEiM1GLQj9a-43">
          <mxGeometry x="1" width="20" height="20" relative="1" as="geometry">
            <mxPoint x="-27" y="7" as="offset" />
          </mxGeometry>
        </mxCell>
        <mxCell id="V81oZwgacPEiM1GLQj9a-54" value="" style="ellipse;whiteSpace=wrap;html=1;align=center;aspect=fixed;fillColor=none;strokeColor=none;resizable=0;perimeter=centerPerimeter;rotatable=0;allowArrows=0;points=[];outlineConnect=1;" vertex="1" parent="1">
          <mxGeometry x="390" y="55" width="10" height="10" as="geometry" />
        </mxCell>
        <mxCell id="V81oZwgacPEiM1GLQj9a-62" value="" style="html=1;rounded=0;" vertex="1" parent="1">
          <mxGeometry x="280" y="270" width="20" height="20" as="geometry" />
        </mxCell>
        <mxCell id="V81oZwgacPEiM1GLQj9a-93" style="edgeStyle=orthogonalEdgeStyle;shape=connector;rounded=0;orthogonalLoop=1;jettySize=auto;html=1;labelBackgroundColor=default;strokeColor=default;align=center;verticalAlign=middle;fontFamily=Helvetica;fontSize=11;fontColor=default;endArrow=none;endFill=0;" edge="1" parent="1" source="V81oZwgacPEiM1GLQj9a-66" target="V81oZwgacPEiM1GLQj9a-27">
          <mxGeometry relative="1" as="geometry" />
        </mxCell>
        <mxCell id="V81oZwgacPEiM1GLQj9a-66" value="" style="ellipse;whiteSpace=wrap;html=1;aspect=fixed;" vertex="1" parent="1">
          <mxGeometry x="330" y="350" width="20" height="20" as="geometry" />
        </mxCell>
        <mxCell id="V81oZwgacPEiM1GLQj9a-70" style="edgeStyle=orthogonalEdgeStyle;rounded=0;orthogonalLoop=1;jettySize=auto;html=1;endArrow=none;endFill=0;" edge="1" parent="1" source="V81oZwgacPEiM1GLQj9a-68">
          <mxGeometry relative="1" as="geometry">
            <mxPoint x="235" y="160" as="targetPoint" />
          </mxGeometry>
        </mxCell>
        <mxCell id="V81oZwgacPEiM1GLQj9a-83" style="edgeStyle=orthogonalEdgeStyle;shape=connector;rounded=0;orthogonalLoop=1;jettySize=auto;html=1;labelBackgroundColor=default;strokeColor=default;align=center;verticalAlign=middle;fontFamily=Helvetica;fontSize=11;fontColor=default;endArrow=none;endFill=0;exitX=0;exitY=0.5;exitDx=0;exitDy=0;exitPerimeter=0;" edge="1" parent="1" source="V81oZwgacPEiM1GLQj9a-68" target="V81oZwgacPEiM1GLQj9a-60">
          <mxGeometry relative="1" as="geometry" />
        </mxCell>
        <mxCell id="V81oZwgacPEiM1GLQj9a-82" style="edgeStyle=orthogonalEdgeStyle;shape=connector;rounded=0;orthogonalLoop=1;jettySize=auto;html=1;labelBackgroundColor=default;strokeColor=default;align=center;verticalAlign=middle;fontFamily=Helvetica;fontSize=11;fontColor=default;endArrow=none;endFill=0;" edge="1" parent="1" source="V81oZwgacPEiM1GLQj9a-74" target="V81oZwgacPEiM1GLQj9a-62">
          <mxGeometry relative="1" as="geometry" />
        </mxCell>
        <mxCell id="V81oZwgacPEiM1GLQj9a-74" value="Manage timer" style="shape=requiredInterface;html=1;verticalLabelPosition=middle;sketch=0;direction=north;labelPosition=right;align=left;verticalAlign=middle;spacing=2;" vertex="1" parent="1">
          <mxGeometry x="280" y="195" width="20" height="10" as="geometry" />
        </mxCell>
        <mxCell id="V81oZwgacPEiM1GLQj9a-75" style="edgeStyle=orthogonalEdgeStyle;rounded=0;orthogonalLoop=1;jettySize=auto;html=1;entryX=0.75;entryY=1;entryDx=0;entryDy=0;endArrow=none;endFill=0;exitX=1;exitY=0.5;exitDx=0;exitDy=0;exitPerimeter=0;" edge="1" parent="1" source="V81oZwgacPEiM1GLQj9a-74" target="V81oZwgacPEiM1GLQj9a-31">
          <mxGeometry relative="1" as="geometry">
            <mxPoint x="140" y="80" as="sourcePoint" />
            <mxPoint x="210" y="80" as="targetPoint" />
          </mxGeometry>
        </mxCell>
        <mxCell id="V81oZwgacPEiM1GLQj9a-80" style="edgeStyle=orthogonalEdgeStyle;shape=connector;rounded=0;orthogonalLoop=1;jettySize=auto;html=1;entryX=0;entryY=0.25;entryDx=0;entryDy=0;labelBackgroundColor=default;strokeColor=default;align=center;verticalAlign=middle;fontFamily=Helvetica;fontSize=11;fontColor=default;endArrow=none;endFill=0;" edge="1" parent="1" source="V81oZwgacPEiM1GLQj9a-76" target="V81oZwgacPEiM1GLQj9a-43">
          <mxGeometry relative="1" as="geometry" />
        </mxCell>
        <mxCell id="V81oZwgacPEiM1GLQj9a-81" style="edgeStyle=orthogonalEdgeStyle;shape=connector;rounded=0;orthogonalLoop=1;jettySize=auto;html=1;entryX=1;entryY=0.25;entryDx=0;entryDy=0;labelBackgroundColor=default;strokeColor=default;align=center;verticalAlign=middle;fontFamily=Helvetica;fontSize=11;fontColor=default;endArrow=none;endFill=0;" edge="1" parent="1" source="V81oZwgacPEiM1GLQj9a-76" target="V81oZwgacPEiM1GLQj9a-31">
          <mxGeometry relative="1" as="geometry" />
        </mxCell>
        <mxCell id="V81oZwgacPEiM1GLQj9a-76" value="Access PCI regions" style="shape=providedRequiredInterface;html=1;verticalLabelPosition=bottom;sketch=0;" vertex="1" parent="1">
          <mxGeometry x="390" y="60" width="20" height="20" as="geometry" />
        </mxCell>
        <mxCell id="V81oZwgacPEiM1GLQj9a-78" style="edgeStyle=orthogonalEdgeStyle;rounded=0;orthogonalLoop=1;jettySize=auto;html=1;entryX=1;entryY=0.75;entryDx=0;entryDy=0;endArrow=none;endFill=0;" edge="1" parent="1" target="V81oZwgacPEiM1GLQj9a-31">
          <mxGeometry relative="1" as="geometry">
            <mxPoint x="390" y="130" as="sourcePoint" />
          </mxGeometry>
        </mxCell>
        <mxCell id="V81oZwgacPEiM1GLQj9a-79" style="edgeStyle=orthogonalEdgeStyle;shape=connector;rounded=0;orthogonalLoop=1;jettySize=auto;html=1;entryX=0;entryY=0.75;entryDx=0;entryDy=0;labelBackgroundColor=default;strokeColor=default;align=center;verticalAlign=middle;fontFamily=Helvetica;fontSize=11;fontColor=default;endArrow=none;endFill=0;exitX=0;exitY=0.5;exitDx=0;exitDy=0;exitPerimeter=0;" edge="1" parent="1" source="V81oZwgacPEiM1GLQj9a-94" target="V81oZwgacPEiM1GLQj9a-43">
          <mxGeometry relative="1" as="geometry">
            <mxPoint x="405" y="137" as="sourcePoint" />
          </mxGeometry>
        </mxCell>
        <mxCell id="V81oZwgacPEiM1GLQj9a-96" style="shape=connector;rounded=0;orthogonalLoop=1;jettySize=auto;html=1;labelBackgroundColor=default;strokeColor=default;align=center;verticalAlign=middle;fontFamily=Helvetica;fontSize=11;fontColor=default;endArrow=open;endFill=0;dashed=1;dashPattern=8 8;exitX=0;exitY=0.5;exitDx=0;exitDy=0;exitPerimeter=0;" edge="1" parent="1" source="V81oZwgacPEiM1GLQj9a-87" target="V81oZwgacPEiM1GLQj9a-91">
          <mxGeometry relative="1" as="geometry">
            <mxPoint x="-80" y="160" as="sourcePoint" />
          </mxGeometry>
        </mxCell>
        <mxCell id="V81oZwgacPEiM1GLQj9a-87" value="" style="shape=requiredInterface;html=1;verticalLabelPosition=bottom;sketch=0;fontFamily=Helvetica;fontSize=11;fontColor=default;direction=north;" vertex="1" parent="1">
          <mxGeometry x="225" y="320" width="20" height="10" as="geometry" />
        </mxCell>
        <mxCell id="V81oZwgacPEiM1GLQj9a-108" style="edgeStyle=orthogonalEdgeStyle;shape=connector;rounded=0;orthogonalLoop=1;jettySize=auto;html=1;entryX=0.5;entryY=1;entryDx=0;entryDy=0;labelBackgroundColor=default;strokeColor=default;align=center;verticalAlign=middle;fontFamily=Helvetica;fontSize=11;fontColor=default;endArrow=none;endFill=0;" edge="1" parent="1" source="V81oZwgacPEiM1GLQj9a-88" target="V81oZwgacPEiM1GLQj9a-62">
          <mxGeometry relative="1" as="geometry" />
        </mxCell>
        <mxCell id="V81oZwgacPEiM1GLQj9a-88" value="" style="shape=requiredInterface;html=1;verticalLabelPosition=bottom;sketch=0;fontFamily=Helvetica;fontSize=11;fontColor=default;direction=north;" vertex="1" parent="1">
          <mxGeometry x="280" y="320" width="20" height="10" as="geometry" />
        </mxCell>
        <mxCell id="V81oZwgacPEiM1GLQj9a-90" style="edgeStyle=orthogonalEdgeStyle;shape=connector;rounded=0;orthogonalLoop=1;jettySize=auto;html=1;entryX=1;entryY=0.5;entryDx=0;entryDy=0;entryPerimeter=0;labelBackgroundColor=default;strokeColor=default;align=center;verticalAlign=middle;fontFamily=Helvetica;fontSize=11;fontColor=default;endArrow=none;endFill=0;" edge="1" parent="1" source="V81oZwgacPEiM1GLQj9a-60" target="V81oZwgacPEiM1GLQj9a-87">
          <mxGeometry relative="1" as="geometry" />
        </mxCell>
        <mxCell id="V81oZwgacPEiM1GLQj9a-92" style="edgeStyle=orthogonalEdgeStyle;shape=connector;rounded=0;orthogonalLoop=1;jettySize=auto;html=1;labelBackgroundColor=default;strokeColor=default;align=center;verticalAlign=middle;fontFamily=Helvetica;fontSize=11;fontColor=default;endArrow=none;endFill=0;" edge="1" parent="1" source="V81oZwgacPEiM1GLQj9a-91" target="V81oZwgacPEiM1GLQj9a-25">
          <mxGeometry relative="1" as="geometry" />
        </mxCell>
        <mxCell id="V81oZwgacPEiM1GLQj9a-91" value="" style="ellipse;whiteSpace=wrap;html=1;aspect=fixed;" vertex="1" parent="1">
          <mxGeometry x="170" y="350" width="20" height="20" as="geometry" />
        </mxCell>
        <mxCell id="V81oZwgacPEiM1GLQj9a-94" value="DMA &amp;amp; Trigger interrupts" style="shape=providedRequiredInterface;html=1;verticalLabelPosition=bottom;sketch=0;flipV=0;flipH=1;" vertex="1" parent="1">
          <mxGeometry x="390" y="120" width="20" height="20" as="geometry" />
        </mxCell>
        <mxCell id="V81oZwgacPEiM1GLQj9a-97" style="shape=connector;rounded=0;orthogonalLoop=1;jettySize=auto;html=1;labelBackgroundColor=default;strokeColor=default;align=center;verticalAlign=middle;fontFamily=Helvetica;fontSize=11;fontColor=default;endArrow=open;endFill=0;dashed=1;dashPattern=8 8;exitX=0;exitY=0.5;exitDx=0;exitDy=0;exitPerimeter=0;" edge="1" parent="1" target="V81oZwgacPEiM1GLQj9a-66">
          <mxGeometry relative="1" as="geometry">
            <mxPoint x="295" y="330" as="sourcePoint" />
            <mxPoint x="-137" y="107" as="targetPoint" />
          </mxGeometry>
        </mxCell>
        <mxCell id="V81oZwgacPEiM1GLQj9a-99" value="" style="html=1;rounded=0;" vertex="1" parent="1">
          <mxGeometry x="570" y="270" width="20" height="20" as="geometry" />
        </mxCell>
        <mxCell id="V81oZwgacPEiM1GLQj9a-103" style="edgeStyle=orthogonalEdgeStyle;shape=connector;rounded=0;orthogonalLoop=1;jettySize=auto;html=1;labelBackgroundColor=default;strokeColor=default;align=center;verticalAlign=middle;fontFamily=Helvetica;fontSize=11;fontColor=default;endArrow=none;endFill=0;" edge="1" parent="1" source="V81oZwgacPEiM1GLQj9a-102" target="V81oZwgacPEiM1GLQj9a-43">
          <mxGeometry relative="1" as="geometry" />
        </mxCell>
        <mxCell id="V81oZwgacPEiM1GLQj9a-104" style="edgeStyle=orthogonalEdgeStyle;shape=connector;rounded=0;orthogonalLoop=1;jettySize=auto;html=1;labelBackgroundColor=default;strokeColor=default;align=center;verticalAlign=middle;fontFamily=Helvetica;fontSize=11;fontColor=default;endArrow=none;endFill=0;" edge="1" parent="1" source="V81oZwgacPEiM1GLQj9a-102" target="V81oZwgacPEiM1GLQj9a-99">
          <mxGeometry relative="1" as="geometry" />
        </mxCell>
        <mxCell id="V81oZwgacPEiM1GLQj9a-102" value="" style="ellipse;whiteSpace=wrap;html=1;aspect=fixed;" vertex="1" parent="1">
          <mxGeometry x="570" y="210" width="20" height="20" as="geometry" />
        </mxCell>
        <mxCell id="V81oZwgacPEiM1GLQj9a-68" value="Send &amp;amp; Receive&lt;br&gt;Ethernet frames" style="shape=requiredInterface;html=1;verticalLabelPosition=middle;sketch=0;spacing=2;spacingLeft=0;spacingBottom=0;direction=north;labelPosition=left;align=right;verticalAlign=middle;" vertex="1" parent="1">
          <mxGeometry x="225" y="195" width="20" height="10" as="geometry" />
        </mxCell>
        <mxCell id="V81oZwgacPEiM1GLQj9a-60" value="" style="html=1;rounded=0;" vertex="1" parent="1">
          <mxGeometry x="225" y="270" width="20" height="20" as="geometry" />
        </mxCell>
        <mxCell id="V81oZwgacPEiM1GLQj9a-110" style="edgeStyle=orthogonalEdgeStyle;shape=connector;rounded=0;orthogonalLoop=1;jettySize=auto;html=1;labelBackgroundColor=default;strokeColor=default;align=center;verticalAlign=middle;fontFamily=Helvetica;fontSize=11;fontColor=default;endArrow=none;endFill=0;" edge="1" parent="1" source="V81oZwgacPEiM1GLQj9a-109" target="V81oZwgacPEiM1GLQj9a-99">
          <mxGeometry relative="1" as="geometry" />
        </mxCell>
        <mxCell id="V81oZwgacPEiM1GLQj9a-109" value="&lt;div style=&quot;&quot;&gt;&lt;span style=&quot;background-color: initial;&quot;&gt;vfio-user&lt;/span&gt;&lt;/div&gt;&lt;div style=&quot;&quot;&gt;&lt;span style=&quot;background-color: initial;&quot;&gt;UNIX socket&lt;/span&gt;&lt;/div&gt;" style="ellipse;html=1;aspect=fixed;labelPosition=left;verticalLabelPosition=middle;align=right;verticalAlign=middle;spacingRight=3;" vertex="1" parent="1">
          <mxGeometry x="570" y="310" width="20" height="20" as="geometry" />
        </mxCell>
        <mxCell id="V81oZwgacPEiM1GLQj9a-113" style="edgeStyle=orthogonalEdgeStyle;shape=connector;rounded=0;orthogonalLoop=1;jettySize=auto;html=1;entryX=0.5;entryY=0;entryDx=0;entryDy=0;labelBackgroundColor=default;strokeColor=default;align=center;verticalAlign=middle;fontFamily=Helvetica;fontSize=11;fontColor=default;endArrow=none;endFill=0;" edge="1" parent="1" source="V81oZwgacPEiM1GLQj9a-111" target="V81oZwgacPEiM1GLQj9a-29">
          <mxGeometry relative="1" as="geometry" />
        </mxCell>
        <mxCell id="V81oZwgacPEiM1GLQj9a-111" value="" style="shape=requiredInterface;html=1;verticalLabelPosition=bottom;sketch=0;fontFamily=Helvetica;fontSize=11;fontColor=default;direction=north;flipH=0;flipV=1;" vertex="1" parent="1">
          <mxGeometry x="570" y="355" width="20" height="10" as="geometry" />
        </mxCell>
        <mxCell id="V81oZwgacPEiM1GLQj9a-114" style="shape=connector;rounded=0;orthogonalLoop=1;jettySize=auto;html=1;labelBackgroundColor=default;strokeColor=default;align=center;verticalAlign=middle;fontFamily=Helvetica;fontSize=11;fontColor=default;endArrow=open;endFill=0;dashed=1;dashPattern=8 8;exitX=0;exitY=0.5;exitDx=0;exitDy=0;exitPerimeter=0;entryX=0.5;entryY=1;entryDx=0;entryDy=0;" edge="1" parent="1" source="V81oZwgacPEiM1GLQj9a-111" target="V81oZwgacPEiM1GLQj9a-109">
          <mxGeometry relative="1" as="geometry">
            <mxPoint x="300" y="340" as="sourcePoint" />
            <mxPoint x="337" y="364" as="targetPoint" />
          </mxGeometry>
        </mxCell>
      </root>
    </mxGraphModel>
  </diagram>
</mxfile>
